<?xml version="1.0" encoding="UTF-8"?>
<!-- Generator: visioncortex VTracer 0.6.5 -->
<svg version="1.1" xmlns="http://www.w3.org/2000/svg" width="200" height="200">
<path d="M0 0 C10.52 9.06 10.52 9.06 13.25 13.69 C12.83 16.32 12.83 16.32 12.25 18.69 C8.02 18.75 3.79 18.78 -0.44 18.81 C-1.64 18.83 -2.83 18.85 -4.07 18.86 C-5.23 18.87 -6.38 18.88 -7.57 18.88 C-8.11 18.89 -8.11 18.89 -10.8 18.91 C-15.37 18.56 -17.94 17.56 -21.06 14.19 C-22.75 11.69 -22.75 11.69 -22.75 9.69 C-23.11 9.54 -23.11 9.54 -24.94 8.81 C-27.54 7.77 -30.15 6.73 -32.75 5.69 C-33.48 29.72 -33.48 29.72 -28.75 37.69 C-28.09 37.36 -27.43 37.03 -26.75 36.69 C-25.21 36.53 -23.66 36.44 -22.11 36.37 C-21.15 36.33 -20.19 36.29 -19.21 36.24 C-18.17 36.2 -17.13 36.17 -16.06 36.12 C-15 36.08 -13.94 36.04 -12.85 36 C-5.19 35.73 2.46 35.55 10.12 35.5 C11.11 35.49 12.1 35.47 13.11 35.46 C14.02 35.46 14.93 35.46 15.87 35.46 C16.67 35.45 17.47 35.45 18.29 35.44 C20.25 35.69 20.25 35.69 22.25 37.69 C22.71 41.1 22.58 44.56 22.56 48 C22.56 49 22.55 50 22.55 51.03 C22.26 68.55 16.61 83.05 4.25 95.69 C-10.16 108.34 -23.87 112.24 -42.58 111.75 C-44.62 111.69 -46.65 111.66 -48.69 111.63 C-61.45 111.18 -72.66 107.6 -82.75 99.69 C-83.41 99.2 -84.08 98.71 -84.76 98.21 C-96.12 89.18 -104.1 74.67 -106.47 60.44 C-108.44 41.2 -103.71 24.26 -92.38 8.69 C-69.24 -18.59 -27.77 -21.86 0 0 Z M-56.44 9.56 C-57.06 10.1 -57.68 10.63 -58.32 11.18 C-59.75 12.69 -59.75 12.69 -59.75 14.69 C-60.41 14.69 -61.07 14.69 -61.75 14.69 C-73.25 28.96 -76.99 45.4 -75.35 63.4 C-74.08 73.95 -70.12 83.21 -63.75 91.69 C-63.17 92.7 -62.59 93.71 -62 94.75 C-57.61 100.48 -50.7 106.48 -43.75 108.69 C-34.02 107.14 -23.86 98.82 -17.84 91.3 C-16.05 88.81 -14.37 86.29 -12.75 83.69 C-12.36 83.09 -11.97 82.49 -11.57 81.87 C-7.55 74.9 -6.41 66.47 -4.75 58.69 C-6.21 58.18 -7.67 57.68 -9.12 57.19 C-9.94 56.91 -10.75 56.63 -11.59 56.34 C-13.75 55.69 -13.75 55.69 -15.75 55.69 C-16.08 54.7 -16.41 53.71 -16.75 52.69 C-19.19 50 -19.19 50 -21.75 47.69 C-22.41 47.69 -23.07 47.69 -23.75 47.69 C-25.08 45.02 -26.42 42.35 -27.75 39.69 C-28.08 39.85 -28.08 39.85 -29.75 40.69 C-27.42 47.48 -24.46 52.89 -20.04 58.56 C-19.83 58.91 -19.83 58.91 -18.75 60.69 C-20.01 64.46 -21.91 65.91 -24.75 68.69 C-31.38 75.65 -35.72 82.61 -37.28 92.18 C-38.02 96.15 -39.38 99.9 -40.75 103.69 C-41.74 103.36 -42.73 103.03 -43.75 102.69 C-44.44 100.62 -44.44 100.62 -44.75 98.69 C-45.41 98.69 -46.07 98.69 -46.75 98.69 C-46.52 98.05 -46.3 97.41 -46.06 96.75 C-45.1 87.28 -52.16 77.32 -57.69 70.18 C-62.15 64.99 -62.15 64.99 -64.75 63.69 C-64.16 60.66 -63.52 57.67 -62.75 54.69 C-62.09 54.69 -61.43 54.69 -60.75 54.69 C-52.64 38.9 -50.13 24.27 -49.75 6.69 C-53.29 6.69 -53.85 7.3 -56.44 9.56 Z M-43.75 57.69 C-44.81 60.06 -44.81 60.06 -45.75 62.69 C-45.42 63.35 -45.09 64.01 -44.75 64.69 C-44.09 64.69 -43.43 64.69 -42.75 64.69 C-42.75 73.93 -42.75 83.17 -42.75 92.69 C-42.42 92.69 -42.09 92.69 -41.75 92.69 C-41.74 91.9 -41.72 91.1 -41.71 90.29 C-41.63 86.69 -41.53 83.1 -41.44 79.5 C-41.43 78.88 -41.43 78.88 -41.37 75.72 C-41.33 74.52 -41.3 73.32 -41.26 72.08 C-41.24 70.98 -41.21 69.87 -41.18 68.73 C-40.71 65.39 -39.67 63.44 -37.75 60.69 C-39.06 59.19 -39.06 59.19 -40.75 57.69 C-41.74 57.69 -42.73 57.69 -43.75 57.69 Z M-42.75 93.69 C-41.75 96.69 -41.75 96.69 -41.75 96.69 Z " fill="#282728" transform="translate(137.75,51.3125)"/>
<path d="M0 0 C2.56 2.31 2.56 2.31 4 4 C3.67 4.99 3.34 5.98 3 7 C1.68 6.01 0.36 5.02 -1 4 C-0.18 4.95 0.65 5.9 1.5 6.88 C4 9.75 4 9.75 4 12 C3.36 11.81 2.72 11.63 2.06 11.44 C1.38 11.29 0.7 11.15 0 11 C-0.16 11.16 -0.16 11.16 -1 12 C-4.07 12.36 -7.16 12.37 -10.25 12.44 C-11.11 12.48 -11.97 12.53 -12.86 12.58 C-15.37 12.62 -17.55 12.57 -20 12 C-22.75 9.15 -22.75 9.15 -25 6 C-27.89 4.32 -27.89 4.32 -30.81 3.12 C-31.79 2.72 -32.76 2.31 -33.77 1.88 C-34.51 1.59 -35.24 1.3 -36 1 C-36.69 23.63 -36.69 23.63 -32 33 C-20.12 33 -8.24 33 4 33 C4 33.33 4 33.66 4 34 C2.35 34.33 0.7 34.66 -1 35 C1.31 35.33 3.62 35.66 6 36 C5.01 36.66 4.02 37.32 3 38 C4.98 38.33 6.96 38.66 9 39 C8.84 39.33 8.84 39.33 8 41 C5.44 41.62 5.44 41.62 3 42 C5.31 42 7.62 42 10 42 C10.37 51.19 9.71 59.19 7 68 C6.67 68 6.34 68 6 68 C5.88 62.25 5.88 62.25 7 60 C7.23 57.29 7.42 54.59 7.56 51.88 C7.58 51.5 7.58 51.5 7.69 49.59 C7.8 47.73 7.9 45.86 8 44 C7.5 44.16 7.5 44.16 5 45 C5.33 45.33 5.66 45.66 6 46 C7.09 58.33 3.93 68.31 -2 79 C-3 77 -3 77 -2.29 74.46 C-1.93 73.44 -1.56 72.42 -1.19 71.38 C1.5 63.59 3.28 56.21 4 48 C3.01 48.66 2.02 49.32 1 50 C0.85 52.18 0.85 52.18 1.06 54.88 C1.33 65.54 -3.22 74.29 -9 83 C-9.33 82.34 -9.66 81.68 -10 81 C-9.07 79.12 -9.07 79.12 -7.69 76.88 C-4.08 70.64 -2.89 65.24 -3 58 C-3.14 58.7 -3.27 59.41 -3.41 60.13 C-5.27 68.66 -8.35 80.02 -15.22 85.9 C-15.52 86.08 -15.52 86.08 -17 87 C-16.06 83.72 -15.15 81.21 -13.12 78.44 C-7.9 70.99 -6.4 60.91 -6 52 C-6.69 52.08 -7.38 52.16 -8.09 52.25 C-13.61 52.62 -17.33 52.39 -21.88 49.06 C-26.12 45.34 -28.7 41.11 -31 36 C-31 43.31 -25.28 50.37 -21 56 C-22.57 59.85 -25.06 62.12 -28 65 C-34.14 71.76 -38.02 78.43 -39.55 87.5 C-40.01 90.08 -40.63 92.55 -41.38 95.06 C-41.59 95.8 -41.8 96.53 -42.02 97.29 C-43 99 -43 99 -45.1 99.75 C-45.73 99.83 -46.35 99.91 -47 100 C-50.08 94.71 -50.08 94.71 -49.69 91.12 C-49.46 90.42 -49.23 89.72 -49 89 C-49.66 88.67 -50.32 88.34 -51 88 C-51.64 86.07 -51.64 86.07 -52.25 83.56 C-54.93 74.13 -60.73 64.52 -69 59 C-68.44 55.66 -67.65 52.97 -66 50 C-65.34 50 -64.68 50 -64 50 C-63.83 49.42 -63.66 48.84 -63.48 48.24 C-62.32 44.49 -61.33 41.45 -59 38.25 C-52.43 27.58 -52.7 12.86 -53.45 0.75 C-53 -2 -53 -2 -50.81 -3.77 C-34.16 -11.05 -15.17 -10.07 0 0 Z M-47 53 C-48.06 55.38 -48.06 55.38 -49 58 C-48.67 58.66 -48.34 59.32 -48 60 C-47.34 60 -46.68 60 -46 60 C-46 69.24 -46 78.48 -46 88 C-45.67 88 -45.34 88 -45 88 C-44.99 87.21 -44.97 86.42 -44.96 85.6 C-44.88 82 -44.78 78.41 -44.69 74.81 C-44.68 74.19 -44.68 74.19 -44.62 71.04 C-44.58 69.84 -44.55 68.63 -44.51 67.39 C-44.49 66.29 -44.46 65.18 -44.43 64.05 C-43.96 60.7 -42.92 58.75 -41 56 C-42.31 54.5 -42.31 54.5 -44 53 C-44.99 53 -45.98 53 -47 53 Z M-46 89 C-45 92 -45 92 -45 92 Z " fill="#141517" transform="translate(141,56)"/>
<path d="M0 0 C0.49 -0.01 0.49 -0.01 2.99 -0.04 C3.9 -0.04 4.81 -0.04 5.74 -0.04 C6.54 -0.05 7.34 -0.05 8.17 -0.06 C10.12 0.19 10.12 0.19 12.12 2.19 C12.58 5.6 12.46 9.06 12.44 12.5 C12.43 13.5 12.43 14.5 12.42 15.53 C12.13 33.05 6.48 47.55 -5.88 60.19 C-24.72 76.74 -43.23 76.97 -66.9 75.6 C-69.88 75.19 -69.88 75.19 -72.88 73.19 C-71.75 73.2 -70.63 73.21 -69.48 73.22 C-68.01 73.23 -66.54 73.24 -65.06 73.25 C-64.69 73.25 -64.69 73.25 -62.83 73.28 C-59.58 73.29 -56.98 73.22 -53.88 72.19 C-53.03 71.96 -52.18 71.73 -51.31 71.5 C-43.53 68.53 -37.57 64.17 -31.88 58.19 C-31.22 58.19 -30.56 58.19 -29.88 58.19 C-29.6 57.62 -29.33 57.06 -29.05 56.47 C-27.83 54.09 -26.44 51.88 -25 49.62 C-20.01 41.34 -17.44 32.69 -15.88 23.19 C-17.85 22.86 -19.84 22.53 -21.88 22.19 C-21.88 21.53 -21.88 20.87 -21.88 20.19 C-18.91 20.52 -15.94 20.85 -12.88 21.19 C-11.95 33.19 -15.92 44.45 -22.88 54.19 C-18.8 50.75 -17.17 46.96 -15.25 42.12 C-14.94 41.37 -14.64 40.62 -14.32 39.85 C-12.05 34.07 -10.53 28.38 -9.88 22.19 C-9.55 22.19 -9.22 22.19 -8.88 22.19 C-8.5 29.53 -9.05 35.4 -11.88 42.19 C-12.16 42.88 -12.45 43.58 -12.74 44.3 C-13.43 45.94 -14.15 47.56 -14.88 49.19 C-8.94 39.48 -6.5 30.52 -5.88 19.19 C-7.86 19.19 -9.84 19.19 -11.88 19.19 C-11.88 18.86 -11.88 18.53 -11.88 18.19 C-8.91 17.86 -5.94 17.53 -2.88 17.19 C-2.28 25.72 -4.52 33.07 -6.88 41.19 C-7.21 42.52 -7.55 43.85 -7.88 45.19 C-4.47 38.58 -2.99 32.47 -2.12 25.12 C-2 24.16 -1.87 23.2 -1.75 22.21 C-1.44 19.87 -1.16 17.53 -0.88 15.19 C-4.5 15.19 -8.13 15.19 -11.88 15.19 C-11.88 14.86 -11.88 14.53 -11.88 14.19 C-7.58 13.86 -3.3 13.53 1.12 13.19 C1.12 18.47 1.12 23.75 1.12 29.19 C2.09 25.34 2.43 21.89 2.69 17.94 C2.73 17.31 2.73 17.31 2.94 14.11 C3 13.15 3.06 12.18 3.12 11.19 C2.18 11.35 1.23 11.52 0.25 11.69 C-4.45 12.37 -9.14 12.27 -13.88 12.19 C-13.88 11.86 -13.88 11.53 -13.88 11.19 C-8.93 10.53 -3.97 9.87 1.12 9.19 C-2.5 8.86 -6.13 8.53 -9.88 8.19 C-9.88 7.86 -9.88 7.53 -9.88 7.19 C-8.88 7.02 -8.88 7.02 -3.88 6.19 C-8.82 5.86 -13.78 5.53 -18.88 5.19 C-18.88 4.86 -18.88 4.53 -18.88 4.19 C-15.25 3.86 -11.62 3.53 -7.88 3.19 C-17.44 2.86 -27.02 2.53 -36.88 2.19 C-36.88 1.86 -36.88 1.53 -36.88 1.19 C-24.59 0.57 -12.3 0.08 0 0 Z " fill="#B94356" transform="translate(147.875,86.8125)"/>
<path d="M0 0 C10.52 9.06 10.52 9.06 13.25 13.69 C12.83 16.32 12.83 16.32 12.25 18.69 C8.02 18.75 3.79 18.78 -0.44 18.81 C-1.64 18.83 -2.83 18.85 -4.07 18.86 C-5.23 18.87 -6.38 18.88 -7.57 18.88 C-8.11 18.89 -8.11 18.89 -10.8 18.91 C-15.45 18.56 -17.97 17.58 -21.06 14.06 C-21.62 13.28 -22.18 12.5 -22.75 11.69 C-22.42 11.03 -22.09 10.37 -21.75 9.69 C-21.13 10.68 -20.51 11.67 -19.88 12.69 C-18.11 14.81 -17.27 15.6 -14.51 16.05 C-12.8 16.02 -11.1 15.94 -9.4 15.83 C-5.44 15.62 -1.68 16.18 2.25 16.69 C2.58 16.03 2.91 15.37 3.25 14.69 C4.57 15.35 5.89 16.01 7.25 16.69 C6.83 16.13 6.41 15.58 5.97 15.01 C5.7 14.65 5.7 14.65 4.31 12.81 C3.77 12.09 3.22 11.37 2.66 10.63 C1.25 8.69 1.25 8.69 0.25 6.69 C2.72 7.84 4.3 8.74 6.25 10.69 C6.25 10.03 6.25 9.37 6.25 8.69 C5.26 8.03 4.27 7.37 3.25 6.69 C3.25 6.03 3.25 5.37 3.25 4.69 C2.38 4.42 1.52 4.15 0.62 3.88 C-2.75 2.69 -2.75 2.69 -5.69 1.19 C-11.59 -1.71 -17.28 -2.7 -23.81 -2.69 C-24.18 -2.69 -24.18 -2.69 -26.03 -2.69 C-33.43 -2.54 -43.35 -1.72 -48.75 3.69 C-48.88 5.98 -48.88 5.98 -48.75 8.88 C-48.58 19.2 -50 29.73 -52.75 39.69 C-53.08 39.85 -53.08 39.85 -54.75 40.69 C-54.44 38.94 -54.13 37.19 -53.81 35.44 C-53.64 34.46 -53.46 33.49 -53.29 32.48 C-52.75 29.69 -52.75 29.69 -52.21 27.8 C-51.51 24.62 -51.43 21.44 -51.25 18.19 C-50.81 10.14 -50.81 10.14 -49.75 6.69 C-50.51 7.18 -51.28 7.68 -52.06 8.19 C-54.75 9.69 -54.75 9.69 -57.75 9.69 C-57.42 9.03 -57.09 8.37 -56.75 7.69 C-60.47 8.19 -63.48 8.8 -66.75 10.69 C-66.59 10.19 -66.59 10.19 -65.75 7.69 C-66.41 7.36 -67.07 7.03 -67.75 6.69 C-67.59 6.19 -67.59 6.19 -66.75 3.69 C-65.76 3.69 -64.77 3.69 -63.75 3.69 C-63.91 3.36 -63.91 3.36 -64.75 1.69 C-66.07 2.02 -67.39 2.35 -68.75 2.69 C-68.75 2.03 -68.75 1.37 -68.75 0.69 C-67.76 0.69 -66.77 0.69 -65.75 0.69 C-65.75 0.03 -65.75 -0.63 -65.75 -1.31 C-67.4 -0.98 -69.05 -0.65 -70.75 -0.31 C-70.42 -1.3 -70.09 -2.29 -69.75 -3.31 C-70.45 -2.81 -71.15 -2.3 -71.87 -1.78 C-72.78 -1.13 -73.69 -0.48 -74.62 0.19 C-75.53 0.84 -76.43 1.49 -77.37 2.16 C-79.75 3.69 -79.75 3.69 -81.75 3.69 C-82.08 4.68 -82.41 5.67 -82.75 6.69 C-83.45 7.37 -84.15 8.05 -84.88 8.75 C-92.14 15.8 -96.22 24.34 -99.75 33.69 C-100.41 35.36 -101.08 37.02 -101.75 38.69 C-102.41 38.69 -103.07 38.69 -103.75 38.69 C-103.81 42.19 -103.84 45.69 -103.88 49.19 C-103.89 50.17 -103.91 51.15 -103.93 52.16 C-103.99 61.93 -101.68 69.24 -97.68 78.15 C-97.37 78.99 -97.06 79.82 -96.75 80.69 C-96.91 81.02 -96.91 81.02 -97.75 82.69 C-106.48 67.01 -109.53 50.7 -104.92 33.08 C-98.33 14 -87.21 0.34 -68.99 -8.65 C-46.16 -19.21 -19.56 -15.4 0 0 Z " fill="#827FAA" transform="translate(137.75,51.3125)"/>
<path d="M0 0 C0.66 0.33 1.32 0.66 2 1 C1.34 1.66 0.68 2.32 0 3 C1.32 3 2.64 3 4 3 C4 3.66 4 4.32 4 5 C3.01 5 2.02 5 1 5 C1 5.66 1 6.32 1 7 C2.98 6.34 4.96 5.68 7 5 C6.67 5.99 6.34 6.98 6 8 C5.01 8.33 4.02 8.66 3 9 C2.67 9.66 2.34 10.32 2 11 C2.99 11.33 3.98 11.66 5 12 C4.34 12.99 3.68 13.98 3 15 C3.87 14.34 4.73 13.68 5.62 13 C9.21 10.87 10.93 10.61 15 11 C14.22 12.34 13.42 13.67 12.62 15 C12.18 15.74 11.74 16.48 11.29 17.25 C10.86 17.83 10.44 18.41 10 19 C9.34 19 8.68 19 8 19 C7.73 19.6 7.46 20.2 7.19 20.81 C6.02 22.97 4.81 24.36 3 26 C4.12 23.03 5.22 20.67 7 18 C6.34 18 5.68 18 5 18 C4.77 18.52 4.55 19.03 4.31 19.56 C3 22 3 22 0.69 25.06 C-4.93 32.84 -7.8 41.75 -10 51 C-10.33 51 -10.66 51 -11 51 C-10.09 40.46 -6.89 32.36 -2 23 C-2.45 23.83 -2.91 24.65 -3.38 25.5 C-3.91 26.33 -4.45 27.15 -5 28 C-5.66 28 -6.32 28 -7 28 C-7.06 28.28 -7.06 28.28 -7.38 29.7 C-8.05 32.19 -8.95 34.49 -9.94 36.88 C-10.64 38.58 -11.33 40.29 -12 42 C-12.36 42.89 -12.72 43.78 -13.09 44.7 C-14.3 49.1 -14.46 53.34 -14.62 57.88 C-14.66 58.75 -14.7 59.63 -14.74 60.54 C-14.84 62.69 -14.92 64.85 -15 67 C-15.33 67 -15.66 67 -16 67 C-17.02 48.03 -15.06 34.26 -3 19 C-2.34 18.01 -1.68 17.02 -1 16 C-1.66 16 -2.32 16 -3 16 C-3 16.66 -3 17.32 -3 18 C-3.66 18 -4.32 18 -5 18 C-5.29 18.58 -5.58 19.16 -5.88 19.75 C-6.92 21.83 -7.96 23.92 -9 26 C-9.66 26 -10.32 26 -11 26 C-11.11 26.53 -11.23 27.06 -11.35 27.61 C-12.16 30.59 -13.29 33.38 -14.44 36.25 C-16.35 41.14 -17.89 45.87 -19 51 C-19.33 51 -19.66 51 -20 51 C-20.73 42.48 -18.11 35.81 -15 28 C-14.34 28 -13.68 28 -13 28 C-12.9 27.44 -12.8 26.88 -12.69 26.3 C-11.86 23.55 -10.57 21.61 -8.94 19.25 C-8.39 18.45 -7.84 17.65 -7.28 16.83 C-6.86 16.22 -6.43 15.62 -6 15 C-6.98 16.12 -7.96 17.25 -8.94 18.38 C-9.21 18.69 -9.21 18.69 -10.59 20.27 C-12 22 -12 22 -13 24 C-13.66 24 -14.32 24 -15 24 C-15.14 24.43 -15.14 24.43 -15.84 26.6 C-16.97 29.91 -18.25 33.13 -19.56 36.38 C-24.32 48.75 -24.16 62.16 -21 75 C-20.03 77.01 -19.04 79.02 -18 81 C-18.42 83.16 -18.42 83.16 -19 85 C-19.8 83.17 -20.59 81.34 -21.38 79.5 C-21.6 78.99 -21.6 78.99 -22.71 76.41 C-28.03 62.36 -27.79 46.86 -22 33 C-21.64 32.12 -21.28 31.24 -20.9 30.34 C-18.29 24.61 -14.8 19.93 -10.77 15.13 C-9 13 -9 13 -7 10 C-20.01 23.59 -27.17 37.3 -27.19 56.25 C-27.2 57.15 -27.21 58.06 -27.22 58.99 C-27.24 67.5 -26.02 74.7 -22.06 82.31 C-21.81 82.81 -21.81 82.81 -20.54 85.3 C-19 88 -19 88 -17.31 90.23 C-16 92 -16 92 -16 94 C-15.51 94.16 -15.51 94.16 -13 95 C-13 96.98 -13 98.96 -13 101 C-12.34 101 -11.68 101 -11 101 C-10.67 101.99 -10.34 102.98 -10 104 C-7.45 105.54 -7.45 105.54 -4.25 107.06 C-3.2 107.57 -2.16 108.08 -1.08 108.6 C1.59 109.81 4.27 110.94 7 112 C4.08 113.25 2.95 112.98 -0.1 111.88 C-8.16 107.86 -14.74 103.61 -21 97 C-21.57 96.41 -22.14 95.82 -22.73 95.21 C-31.43 85.04 -35.39 68.84 -35.19 55.75 C-35.19 54.96 -35.19 54.17 -35.19 53.36 C-35.16 49.72 -34.99 46.53 -34 43 C-33.34 43 -32.68 43 -32 43 C-31.85 42.33 -31.71 41.67 -31.55 40.98 C-27.35 23.7 -16.96 10.98 -2.32 1.21 C-1.94 1.01 -1.94 1.01 0 0 Z " fill="#A63C74" transform="translate(68,47)"/>
<path d="M0 0 C0.49 -0.01 0.49 -0.01 2.99 -0.04 C3.9 -0.04 4.81 -0.04 5.74 -0.04 C6.54 -0.05 7.34 -0.05 8.17 -0.06 C10.12 0.19 10.12 0.19 12.12 2.19 C12.58 5.6 12.46 9.06 12.44 12.5 C12.43 13.5 12.43 14.5 12.42 15.53 C12.13 33.05 6.48 47.55 -5.88 60.19 C-24.72 76.74 -43.23 76.97 -66.9 75.6 C-69.88 75.19 -69.88 75.19 -72.88 73.19 C-71.75 73.2 -70.63 73.21 -69.48 73.22 C-68.01 73.23 -66.54 73.24 -65.06 73.25 C-64.69 73.25 -64.69 73.25 -62.83 73.28 C-59.58 73.29 -56.98 73.22 -53.88 72.19 C-53.03 71.96 -52.18 71.73 -51.31 71.5 C-43.53 68.53 -37.57 64.17 -31.88 58.19 C-31.22 58.19 -30.56 58.19 -29.88 58.19 C-29.6 57.62 -29.33 57.06 -29.05 56.47 C-27.83 54.09 -26.44 51.88 -25 49.62 C-20.01 41.34 -17.44 32.69 -15.88 23.19 C-17.85 22.86 -19.84 22.53 -21.88 22.19 C-21.88 21.53 -21.88 20.87 -21.88 20.19 C-18.91 20.52 -15.94 20.85 -12.88 21.19 C-11.94 33.37 -16.17 46.58 -23.88 56.19 C-24.53 56.19 -25.19 56.19 -25.88 56.19 C-26.2 57.18 -26.53 58.17 -26.88 59.19 C-27.87 59.85 -28.85 60.51 -29.88 61.19 C-29.88 62.18 -29.88 63.17 -29.88 64.19 C-28.46 64.24 -27.04 64.28 -25.62 64.31 C-25.23 64.32 -25.23 64.32 -23.23 64.38 C-20.65 64.17 -19.15 63.38 -16.88 62.19 C-15.88 62.19 -14.9 62.19 -13.88 62.19 C-2.07 53.7 4.66 38.06 7.12 24.19 C7.78 24.19 8.44 24.19 9.12 24.19 C9.45 16.93 9.78 9.67 10.12 2.19 C-5.38 2.19 -20.9 2.19 -36.88 2.19 C-36.88 1.86 -36.88 1.53 -36.88 1.19 C-24.59 0.57 -12.3 0.08 0 0 Z " fill="#E3AB7E" transform="translate(147.875,86.8125)"/>
<path d="M0 0 C0.66 0.33 1.32 0.66 2 1 C1.41 1.63 0.82 2.26 0.21 2.91 C-7.67 11.44 -12.47 18.92 -16 30 C-16.18 30.54 -16.18 30.54 -17.09 33.28 C-18.14 37.59 -18.42 41.52 -18.44 45.94 C-18.44 46.76 -18.45 47.58 -18.45 48.42 C-18.29 56.84 -16.01 64.21 -13 72 C-13.56 69.67 -14.18 67.5 -15 65.25 C-20.47 47.47 -15.57 31.12 -8 15 C-7.34 15 -6.68 15 -6 15 C-5.79 14.28 -5.59 13.56 -5.38 12.81 C-3.55 9.07 -1.3 7.51 2 5 C0.48 8.45 -1.63 11.31 -3.88 14.32 C-5 16 -5 16 -6 19 C-6.66 19 -7.32 19 -8 19 C-8.46 20.5 -8.92 22 -9.38 23.5 C-9.63 24.34 -9.89 25.17 -10.15 26.03 C-10.43 27.01 -10.71 27.99 -11 29 C-11.36 30.24 -11.72 31.48 -12.09 32.76 C-13.2 37.31 -13.3 41.7 -13.25 46.38 C-13.24 47.21 -13.24 48.05 -13.23 48.91 C-13.05 59.67 -11.07 69.9 -5 79 C-5.38 81.19 -5.38 81.19 -6 83 C-6.66 83 -7.32 83 -8 83 C-8.47 82.2 -8.95 81.39 -9.44 80.56 C-11 78 -11 78 -14 77 C-15.32 75.03 -15.32 75.03 -16.56 72.5 C-16.98 71.69 -17.39 70.87 -17.82 70.03 C-20.72 62.59 -21.32 55.43 -21.25 47.5 C-21.26 46.61 -21.27 45.73 -21.27 44.82 C-21.22 27.36 -13.24 13.44 -1.23 1.2 C-0.83 0.8 -0.42 0.41 0 0 Z " fill="#1E0A16" transform="translate(61,56)"/>
<path d="M0 0 C0.03 2.73 0.05 5.46 0.06 8.19 C0.07 8.96 0.08 9.73 0.09 10.52 C0.1 14.49 -0.01 18.13 -1 22 C-1.66 22 -2.32 22 -3 22 C-3.12 23.01 -3.24 24.02 -3.36 25.05 C-3.99 28.95 -4.96 32.4 -6.25 36.12 C-6.65 37.3 -7.04 38.48 -7.45 39.7 C-9.15 43.33 -10.91 45.46 -14 48 C-14.99 48 -15.98 48 -17 48 C-16.69 47.54 -16.37 47.07 -16.05 46.59 C-9.04 35.29 -7.41 22.05 -7 9 C-7.95 9.16 -8.9 9.33 -9.88 9.5 C-14.58 10.19 -19.26 10.09 -24 10 C-24 9.67 -24 9.34 -24 9 C-19.05 8.34 -14.1 7.68 -9 7 C-10.81 6.83 -10.81 6.83 -20 6 C-20 5.67 -20 5.34 -20 5 C-18.02 4.67 -16.04 4.34 -14 4 C-18.95 3.67 -23.9 3.34 -29 3 C-29 2.67 -29 2.34 -29 2 C-19.27 0.6 -9.86 -0.3 0 0 Z " fill="#32445D" transform="translate(158,89)"/>
<path d="M0 0 C8.48 7.84 8.48 7.84 10.56 11.37 C10.14 14 10.14 14 9.56 16.37 C5.33 16.43 1.1 16.46 -3.12 16.5 C-4.32 16.51 -5.52 16.53 -6.76 16.55 C-7.91 16.55 -9.07 16.56 -10.26 16.57 C-10.79 16.57 -10.79 16.57 -13.48 16.6 C-18.14 16.24 -20.65 15.26 -23.75 11.75 C-24.31 10.96 -24.86 10.18 -25.44 9.37 C-25.11 8.71 -24.78 8.05 -24.44 7.37 C-24.13 7.87 -24.13 7.87 -22.56 10.37 C-20.8 12.5 -19.95 13.29 -17.2 13.73 C-15.49 13.7 -13.79 13.63 -12.09 13.52 C-8.12 13.3 -4.37 13.86 -0.44 14.37 C-0.11 13.71 0.22 13.05 0.56 12.37 C1.88 13.03 3.2 13.69 4.56 14.37 C4.14 13.82 3.72 13.26 3.29 12.69 C3.01 12.33 3.01 12.33 1.62 10.5 C1.08 9.78 0.53 9.06 -0.03 8.32 C-1.44 6.37 -1.44 6.37 -2.44 4.37 C0.03 5.52 1.61 6.42 3.56 8.37 C3.56 7.71 3.56 7.05 3.56 6.37 C2.57 5.71 1.58 5.05 0.56 4.37 C0.56 3.71 0.56 3.05 0.56 2.37 C-0.3 2.1 -1.17 1.83 -2.06 1.56 C-5.44 0.37 -5.44 0.37 -8.12 -1.07 C-15.18 -4.39 -22.71 -5.9 -30.44 -6.63 C-29.78 -8.61 -29.12 -10.59 -28.44 -12.63 C-29.43 -12.63 -30.42 -12.63 -31.44 -12.63 C-31.44 -13.29 -31.44 -13.95 -31.44 -14.63 C-41.34 -14.3 -51.24 -13.97 -61.44 -13.63 C-41.77 -23.46 -15.34 -13.22 0 0 Z " fill="#9AC7D0" transform="translate(140.4375,53.62890625)"/>
<path d="M0 0 C2.97 0.33 5.94 0.66 9 1 C9.94 13.18 5.71 26.4 -2 36 C-2.66 36 -3.32 36 -4 36 C-4.33 36.99 -4.66 37.98 -5 39 C-5.99 39.66 -6.98 40.32 -8 41 C-8 41.99 -8 42.98 -8 44 C-6.58 44.05 -5.17 44.09 -3.75 44.12 C-2.96 44.15 -2.17 44.17 -1.36 44.2 C1.21 43.98 2.79 43.29 5 42 C5 42.99 5 43.98 5 45 C-1.36 47.15 -7.74 49.14 -14.18 51.04 C-17 52 -17 52 -20 54 C-22.33 54.08 -24.67 54.09 -27 54 C-24.82 51.77 -22.55 49.72 -20.19 47.69 C-17.55 45.41 -15.05 43.07 -12.62 40.56 C-10 38 -10 38 -8 38 C-7.73 37.43 -7.46 36.87 -7.18 36.29 C-5.95 33.91 -4.56 31.7 -3.12 29.44 C1.87 21.15 4.43 12.5 6 3 C5.01 2.83 5.01 2.83 0 2 C0 1.34 0 0.68 0 0 Z " fill="#B69DAD" transform="translate(126,107)"/>
<path d="M0 0 C0 0.66 0 1.32 0 2 C-0.99 2 -1.98 2 -3 2 C-2.67 2.99 -2.34 3.98 -2 5 C-3.37 6.5 -3.37 6.5 -5 8 C-5.66 8 -6.32 8 -7 8 C-7.33 8.99 -7.66 9.98 -8 11 C-8.7 11.68 -9.4 12.36 -10.12 13.06 C-17.39 20.12 -21.47 28.65 -25 38 C-25.66 39.67 -26.33 41.33 -27 43 C-27.66 43 -28.32 43 -29 43 C-29.06 46.5 -29.09 50 -29.12 53.5 C-29.14 54.48 -29.16 55.46 -29.18 56.48 C-29.24 66.24 -26.93 73.56 -22.93 82.46 C-22.62 83.3 -22.31 84.14 -22 85 C-22.16 85.33 -22.16 85.33 -23 87 C-31.73 71.33 -34.78 55.01 -30.17 37.39 C-26.14 25.71 -14.82 0 0 0 Z " fill="#D3B1C1" transform="translate(63,47)"/>
<path d="M0 0 C0.66 0.33 1.32 0.66 2 1 C1.67 1.49 1.67 1.49 0 4 C0.87 3.34 1.73 2.68 2.62 2 C6.21 -0.13 7.93 -0.39 12 0 C11.22 1.34 10.42 2.67 9.62 4 C9.18 4.74 8.74 5.48 8.29 6.25 C7.86 6.83 7.44 7.41 7 8 C6.34 8 5.68 8 5 8 C4.73 8.6 4.46 9.2 4.19 9.81 C3.02 11.97 1.81 13.36 0 15 C1.12 12.03 2.22 9.67 4 7 C3.34 7 2.68 7 2 7 C1.77 7.52 1.55 8.03 1.31 8.56 C0 11 0 11 -2.31 14.06 C-7.93 21.84 -10.8 30.75 -13 40 C-13.33 40 -13.66 40 -14 40 C-13.09 29.46 -9.89 21.36 -5 12 C-5.45 12.83 -5.91 13.65 -6.38 14.5 C-6.91 15.33 -7.45 16.15 -8 17 C-8.66 17 -9.32 17 -10 17 C-10.13 17.56 -10.25 18.12 -10.38 18.7 C-11.05 21.19 -11.95 23.49 -12.94 25.88 C-13.64 27.58 -14.33 29.29 -15 31 C-15.18 31.45 -15.18 31.45 -16.09 33.7 C-17.3 38.1 -17.46 42.34 -17.62 46.88 C-17.64 47.31 -17.64 47.31 -17.74 49.54 C-17.84 51.69 -17.92 53.85 -18 56 C-18.33 56 -18.66 56 -19 56 C-19.95 38.39 -18.78 24.4 -7.52 10.11 C-5.88 7.84 -5.03 5.59 -4 3 C-1.88 1.19 -1.88 1.19 0 0 Z " fill="#72426C" transform="translate(71,58)"/>
<path d="M0 0 C0.44 12.13 -0.43 21.58 -7 32 C-8 30 -8 30 -7.29 27.46 C-6.93 26.44 -6.56 25.42 -6.19 24.38 C-3.5 16.59 -1.72 9.21 -1 1 C-1.99 1.66 -2.98 2.32 -4 3 C-4.15 5.18 -4.15 5.18 -3.94 7.88 C-3.67 18.54 -8.22 27.29 -14 36 C-14.33 35.34 -14.66 34.68 -15 34 C-14.07 32.12 -14.07 32.12 -12.69 29.88 C-9.08 23.64 -7.89 18.24 -8 11 C-8.07 11.35 -8.07 11.35 -8.41 13.13 C-10.27 21.66 -13.35 33.02 -20.22 38.9 C-20.52 39.08 -20.52 39.08 -22 40 C-21.06 36.72 -20.15 34.21 -18.12 31.44 C-12.68 23.64 -11.37 13.27 -11 4 C-11.99 3.34 -12.98 2.68 -14 2 C-12.61 1.66 -11.21 1.33 -9.81 1 C-9.04 0.81 -8.26 0.63 -7.46 0.44 C-4.92 -0.01 -2.57 -0.07 0 0 Z " fill="#1B0D22" transform="translate(146,103)"/>
<path d="M0 0 C0.49 -0.01 0.49 -0.01 2.99 -0.04 C3.9 -0.04 4.81 -0.04 5.74 -0.04 C6.54 -0.05 7.34 -0.05 8.17 -0.06 C10.12 0.19 10.12 0.19 12.12 2.19 C12.58 5.6 12.46 9.06 12.44 12.5 C12.43 13 12.43 13 12.42 15.52 C12.23 27.38 10.56 36.62 3.12 46.19 C2.47 47.18 1.81 48.17 1.12 49.19 C0.47 49.19 -0.19 49.19 -0.88 49.19 C-1.2 50.51 -1.53 51.83 -1.88 53.19 C-2.53 53.35 -2.53 53.35 -5.88 54.19 C-5.43 53.56 -4.98 52.92 -4.52 52.27 C1.3 43.66 5.32 34.47 7.12 24.19 C7.78 24.19 8.44 24.19 9.12 24.19 C9.45 16.93 9.78 9.67 10.12 2.19 C-5.38 2.19 -20.9 2.19 -36.88 2.19 C-36.88 1.86 -36.88 1.53 -36.88 1.19 C-24.59 0.57 -12.3 0.08 0 0 Z " fill="#A5B9C9" transform="translate(147.875,86.8125)"/>
<path d="M0 0 C0.66 0.33 1.32 0.66 2 1 C1.25 5.75 1.25 5.75 -1 8 C-1.23 10.8 -1.23 10.8 -1.2 14.32 C-1.19 15.58 -1.18 16.83 -1.18 18.13 C-1.16 19.45 -1.14 20.77 -1.12 22.12 C-1.11 23.46 -1.11 24.8 -1.1 26.14 C-1.07 29.43 -1.04 32.71 -1 36 C-0.01 32.7 0.98 29.4 2 26 C3.08 30.32 2.74 32.3 1.75 36.56 C1.5 37.7 1.24 38.83 0.98 40 C0.03 42.9 -0.56 44.23 -3 46 C-3.66 46 -4.32 46 -5 46 C-8.08 40.71 -8.08 40.71 -7.69 37.12 C-7.57 36.77 -7.57 36.77 -7 35 C-7.66 34.67 -8.32 34.34 -9 34 C-9.59 31.35 -9.74 28.71 -10 26 C-8.68 27.32 -7.36 28.64 -6 30 C-5.67 22.41 -5.34 14.82 -5 7 C-5.66 7 -6.32 7 -7 7 C-6.67 6.34 -6.34 5.68 -6 5 C-5.01 5.66 -4.02 6.32 -3 7 C0 3.38 0 3.38 0 0 Z M-4 35 C-3 38 -3 38 -3 38 Z " fill="#929292" transform="translate(99,110)"/>
<path d="M0 0 C0.33 0.66 0.66 1.32 1 2 C-0.33 4.32 -0.33 4.32 -2.25 7.12 C-5.27 11.72 -7.34 15.77 -9 21 C-9.35 21.99 -9.69 22.99 -10.05 24.01 C-11.5 29.13 -11.38 34.34 -11.38 39.62 C-11.37 40.69 -11.37 41.76 -11.37 42.86 C-11.26 50.96 -10.11 57.49 -7 65 C-6.32 67 -5.65 69 -5 71 C-5.99 70.67 -6.98 70.34 -8 70 C-9.32 67.05 -9.32 67.05 -10.56 63.31 C-10.98 62.09 -11.39 60.87 -11.82 59.61 C-12.21 58.42 -12.6 57.23 -13 56 C-13.37 55.03 -13.75 54.07 -14.13 53.07 C-18.02 39.34 -14.49 23.25 -8.06 10.94 C-5.71 6.93 -3.14 3.42 0 0 Z " fill="#280D1F" transform="translate(50,62)"/>
<path d="M0 0 C0.66 0 1.32 0 2 0 C0.51 3.19 -1.32 5.97 -3.31 8.88 C-11.57 21.97 -12.83 33.9 -13 49 C-13.33 49 -13.66 49 -14 49 C-14.33 45.7 -14.66 42.4 -15 39 C-15.3 46.8 -15.34 53.65 -12.56 61.01 C-12 63 -12 63 -13 66 C-13.66 64.48 -14.3 62.96 -14.94 61.44 C-15.3 60.59 -15.66 59.74 -16.03 58.87 C-18.23 52.37 -18.13 45.84 -18.06 39.06 C-18.06 38.63 -18.06 38.63 -18.05 36.41 C-18.04 34.27 -18.02 32.14 -18 30 C-17.34 30.33 -16.68 30.66 -16 31 C-15.88 30.58 -15.88 30.58 -15.27 28.44 C-13.34 21.92 -11.27 15.96 -8 10 C-7.34 10 -6.68 10 -6 10 C-5.71 9.24 -5.42 8.47 -5.12 7.69 C-4 5 -4 5 -2 2 C-1.34 2 -0.68 2 0 2 C0 1.34 0 0.68 0 0 Z " fill="#342230" transform="translate(65,63)"/>
<path d="M0 0 C0.03 2.63 0.05 5.25 0.06 7.88 C0.07 8.62 0.08 9.37 0.09 10.14 C0.11 15.77 0.11 15.77 -1 18 C-1.1 19.52 -1.18 21.04 -1.25 22.56 C-1.74 28.25 -3.91 32.28 -7 37 C-6.5 36.84 -6.5 36.84 -4 36 C-5.36 38.99 -6.95 41.29 -9.12 43.75 C-9.39 44.06 -9.39 44.06 -10.76 45.61 C-10.96 45.84 -10.96 45.84 -12 47 C-12.66 46.67 -13.32 46.34 -14 46 C-13.34 45.18 -13.34 45.18 -10 41 C-11.98 42.98 -13.96 44.96 -16 47 C-16.66 46.67 -17.32 46.34 -18 46 C-17.53 45.61 -17.06 45.22 -16.57 44.82 C-12.05 40.76 -10.05 37.46 -8.7 31.53 C-8 29 -8 29 -6.53 26.37 C-4.42 21.73 -3.94 17.15 -3.31 12.12 C-3.18 11.15 -3.05 10.18 -2.92 9.17 C-2.6 6.78 -2.3 4.39 -2 2 C-5.63 2 -9.26 2 -13 2 C-13 1.67 -13 1.34 -13 1 C-11.4 0.83 -9.79 0.67 -8.19 0.5 C-7.29 0.41 -6.4 0.31 -5.48 0.22 C-3 0 -3 0 0 0 Z " fill="#5E3450" transform="translate(149,100)"/>
<path d="M0 0 C-1.52 4.68 -1.52 4.68 -4.06 6.38 C-6 8 -6 8 -6.38 11.5 C-6.48 12.08 -6.48 12.08 -7 15 C-10.06 16.94 -10.06 16.94 -13 18 C-12.67 17.01 -12.34 16.02 -12 15 C-11.01 15 -10.02 15 -9 15 C-9.33 14.34 -9.66 13.68 -10 13 C-11.32 13.33 -12.64 13.66 -14 14 C-14 13.34 -14 12.68 -14 12 C-13.01 12 -12.02 12 -11 12 C-11 11.34 -11 10.68 -11 10 C-12.65 10.33 -14.3 10.66 -16 11 C-15.67 10.01 -15.34 9.02 -15 8 C-17.31 9.32 -19.62 10.64 -22 12 C-22.33 11.01 -22.66 10.02 -23 9 C-22.01 9 -21.02 9 -20 9 C-19.94 8.4 -19.88 7.79 -19.82 7.17 C-19 5 -19 5 -16.78 3.52 C-10.86 0.88 -6.48 -0.61 0 0 Z " fill="#8A4E8C" transform="translate(83,40)"/>
<path d="M0 0 C1 3 1 3 0 6 C-0.9 18.23 0.59 27.61 5 39 C5.72 41.32 6.36 43.65 7 46 C7.66 46 8.32 46 9 46 C10.66 48.01 10.66 48.01 12.5 50.69 C13.11 51.56 13.72 52.43 14.34 53.32 C15.9 55.83 17 58.23 18 61 C10.91 58.08 6.1 50.85 3.15 44 C1.6 40.05 0.21 36.06 -1 32 C-1.2 31.36 -1.39 30.72 -1.6 30.06 C-3.04 24.91 -3.27 20.08 -3.19 14.75 C-3.19 13.96 -3.19 13.17 -3.19 12.36 C-3.16 8.72 -2.99 5.53 -2 2 C-1.34 2 -0.68 2 0 2 C0 1.34 0 0.68 0 0 Z " fill="#895A73" transform="translate(36,88)"/>
<path d="M0 0 C0 1.98 0 3.96 0 6 C1.42 6.05 2.83 6.09 4.25 6.12 C4.64 6.14 4.64 6.14 6.64 6.2 C9.21 5.98 10.79 5.29 13 4 C13 4.99 13 5.98 13 7 C6.64 9.15 0.26 11.14 -6.18 13.04 C-9 14 -9 14 -12 16 C-14.33 16.08 -16.67 16.09 -19 16 C-16.82 13.77 -14.55 11.72 -12.19 9.69 C-9.55 7.41 -7.05 5.07 -4.62 2.56 C-2 0 -2 0 0 0 Z " fill="#E69C9C" transform="translate(118,145)"/>
<path d="M0 0 C0.33 0 0.66 0 1 0 C1.05 1.05 1.1 2.1 1.15 3.18 C1.83 16.52 3.3 28.17 11.69 39.23 C13 41 13 41 13 43 C13.99 43.33 14.98 43.66 16 44 C16 45.98 16 47.96 16 50 C16.66 50 17.32 50 18 50 C18.33 50.99 18.66 51.98 19 53 C21.55 54.54 21.55 54.54 24.75 56.06 C25.8 56.57 26.84 57.08 27.92 57.6 C30.59 58.81 33.27 59.94 36 61 C32.97 62.35 31.86 61.95 28.69 60.74 C27.45 60.13 26.22 59.51 25 58.88 C24.38 58.58 23.77 58.28 23.13 57.98 C17.07 54.91 14.37 50.66 11 45 C9.68 43.17 8.34 41.35 6.99 39.55 C6 38 6 38 6 36 C5.34 36 4.68 36 4 36 C4.33 35.01 4.66 34.02 5 33 C4.04 30.18 4.04 30.18 2.62 26.88 C-1.14 17.42 -1.22 10.03 0 0 Z " fill="#5D4A58" transform="translate(39,98)"/>
<path d="M0 0 C3.95 2.15 6.82 4.58 9.88 7.88 C10.68 8.72 11.48 9.56 12.3 10.43 C14 13 14 13 13.61 15.66 C13.41 16.43 13.21 17.2 13 18 C8.77 18.06 4.54 18.09 0.31 18.12 C-0.29 18.13 -0.29 18.13 -3.32 18.18 C-4.48 18.18 -5.63 18.19 -6.82 18.2 C-7.36 18.2 -7.36 18.2 -10.05 18.23 C-14.7 17.87 -17.22 16.89 -20.31 13.38 C-20.87 12.59 -21.43 11.81 -22 11 C-21.67 10.34 -21.34 9.68 -21 9 C-20.38 9.99 -19.76 10.98 -19.12 12 C-17.36 14.13 -16.52 14.92 -13.76 15.36 C-12.05 15.33 -10.35 15.25 -8.65 15.14 C-4.69 14.93 -0.93 15.49 3 16 C3.33 15.34 3.66 14.68 4 14 C5.32 14.66 6.64 15.32 8 16 C7.58 15.45 7.16 14.89 6.72 14.32 C6.45 13.96 6.45 13.96 5.06 12.12 C4.52 11.41 3.97 10.69 3.41 9.95 C2 8 2 8 1 6 C3.47 7.15 5.05 8.05 7 10 C7 9.34 7 8.68 7 8 C6.01 7.34 5.02 6.68 4 6 C4 5.34 4 4.68 4 4 C2.68 3.67 1.36 3.34 0 3 C0 2.01 0 1.02 0 0 Z " fill="#B9C4C3" transform="translate(137,52)"/>
<path d="M0 0 C0.66 0.33 1.32 0.66 2 1 C1.67 1.66 1.34 2.32 1 3 C0.01 3.33 -0.98 3.66 -2 4 C-2.16 4.66 -2.33 5.32 -2.5 6 C-2.66 6.66 -2.83 7.32 -3 8 C-3.99 8.33 -4.98 8.66 -6 9 C-6 9.66 -6 10.32 -6 11 C-6.66 11 -7.32 11 -8 11 C-8 11.66 -8 12.32 -8 13 C-8.66 13 -9.32 13 -10 13 C-10.29 13.58 -10.58 14.16 -10.88 14.75 C-11.92 16.83 -12.96 18.92 -14 21 C-14.66 21 -15.32 21 -16 21 C-16.11 21.53 -16.23 22.06 -16.35 22.61 C-17.16 25.59 -18.29 28.38 -19.44 31.25 C-21.35 36.14 -22.89 40.87 -24 46 C-24.33 46 -24.66 46 -25 46 C-25.73 37.48 -23.11 30.81 -20 23 C-19.34 23 -18.68 23 -18 23 C-17.95 22.71 -17.95 22.71 -17.69 21.25 C-16.67 17.91 -14.55 15.68 -12.38 13 C-10.97 10.96 -10.43 9.41 -10 7 C-9.34 7 -8.68 7 -8 7 C-8 6.34 -8 5.68 -8 5 C-6.32 3.68 -6.32 3.68 -4.12 2.31 C-3.41 1.85 -2.69 1.4 -1.95 0.93 C-1.3 0.62 -0.66 0.31 0 0 Z " fill="#833A72" transform="translate(73,52)"/>
<path d="M0 0 C0.66 0.33 1.32 0.66 2 1 C-16.14 13.87 -35.38 15.01 -57 12 C-57.99 11.34 -58.98 10.68 -60 10 C-58.88 10.01 -57.76 10.02 -56.61 10.04 C-55.13 10.04 -53.66 10.05 -52.19 10.06 C-51.45 10.07 -50.71 10.08 -49.95 10.09 C-46.7 10.1 -44.11 10.04 -41 9 C-37 7.67 -33 6.33 -29 5 C-32.75 8.88 -32.75 8.88 -35 10 C-22.19 10.59 -13.66 7.69 -2.69 1.33 C-1.8 0.89 -0.91 0.45 0 0 Z " fill="#F3D8CA" transform="translate(135,150)"/>
<path d="M0 0 C2.1 -0.03 4.21 -0.05 6.31 -0.06 C7.48 -0.07 8.66 -0.09 9.86 -0.1 C13 0 13 0 16 1 C16.33 1.99 16.66 2.98 17 4 C16.01 4.99 15.02 5.98 14 7 C16.64 7 19.28 7 22 7 C22 7.33 22 7.66 22 8 C18.37 8.16 18.37 8.16 0 9 C0 7.35 0 5.7 0 4 C0.33 4.66 0.66 5.32 1 6 C1.99 5.67 2.98 5.34 4 5 C4.33 4.01 4.66 3.02 5 2 C3.35 2 1.7 2 0 2 C0 1.34 0 0.68 0 0 Z " fill="#3E87B0" transform="translate(96,40)"/>
<path d="M0 0 C0 3.58 -0.74 4.28 -2.94 7 C-4.9 9.45 -5.99 10.98 -7 14 C-7.66 14 -8.32 14 -9 14 C-9.46 15.5 -9.92 17 -10.38 18.5 C-10.63 19.34 -10.89 20.17 -11.15 21.03 C-13.1 27.82 -14.33 33.95 -14.62 41 C-14.66 41.77 -14.7 42.55 -14.74 43.35 C-14.84 45.23 -14.92 47.12 -15 49 C-15.99 49 -16.98 49 -18 49 C-18.47 34.13 -15.23 23.28 -9 10 C-8.34 10 -7.68 10 -7 10 C-6.77 9.28 -6.55 8.56 -6.31 7.81 C-4.75 4.47 -2.7 2.48 0 0 Z " fill="#26091A" transform="translate(62,61)"/>
<path d="M0 0 C0.66 0 1.32 0 2 0 C2.54 15.85 -0.57 27.06 -8 41 C-8.99 41 -9.98 41 -11 41 C-10.69 40.54 -10.37 40.07 -10.05 39.59 C-3.33 28.75 -1.63 16.33 -1.18 3.82 C-1 1 -1 1 0 0 Z " fill="#435F81" transform="translate(152,96)"/>
<path d="M0 0 C0.39 17.61 0.39 17.61 -2 25 C-2.36 26.16 -2.73 27.32 -3.11 28.51 C-6.66 39.26 -6.66 39.26 -11 43 C-9.25 37.62 -7.21 32.38 -5.12 27.12 C-3.16 21.66 -2.75 16.43 -2.44 10.69 C-2.39 9.95 -2.35 9.21 -2.31 8.44 C-2.2 6.63 -2.1 4.81 -2 3 C-2.99 3.66 -3.98 4.32 -5 5 C-10.66 6.16 -16.25 6.1 -22 6 C-22 5.67 -22 5.34 -22 5 C-17.05 4.34 -12.1 3.68 -7 3 C-7.66 2.34 -8.32 1.68 -9 1 C-5.94 0.46 -3.11 0 0 0 Z " fill="#233B5B" transform="translate(156,93)"/>
<path d="M0 0 C0 0.66 0 1.32 0 2 C-0.99 2 -1.98 2 -3 2 C-2.67 2.99 -2.34 3.98 -2 5 C-3.37 6.5 -3.37 6.5 -5 8 C-5.66 8 -6.32 8 -7 8 C-7.33 8.99 -7.66 9.98 -8 11 C-9.62 12.71 -11.29 14.37 -13 16 C-13.52 16.58 -14.03 17.16 -14.56 17.75 C-16 19 -16 19 -18 19.38 C-20 20 -20 20 -21.75 22.56 C-22.16 23.37 -22.58 24.17 -23 25 C-23.33 24.34 -23.66 23.68 -24 23 C-23.09 21.6 -22.17 20.21 -21.25 18.81 C-20.99 18.42 -20.99 18.42 -19.7 16.46 C-16.51 11.85 -13.3 8.21 -8.88 4.75 C-8.01 4.06 -7.14 3.38 -6.24 2.67 C-2.66 0 -2.66 0 0 0 Z " fill="#BF547B" transform="translate(63,47)"/>
<path d="M0 0 C5.81 2.22 10.79 4.3 15 9 C14.67 9.99 14.34 10.98 14 12 C12.68 11.01 11.36 10.02 10 9 C10.82 9.95 11.65 10.9 12.5 11.88 C15 14.75 15 14.75 15 17 C12.25 16.88 12.25 16.88 9 16 C7 13.25 7 13.25 5 10 C3.09 8.18 1.09 6.62 -1 5 C-0.01 4.67 0.98 4.34 2 4 C1.34 2.68 0.68 1.36 0 0 Z " fill="#223F41" transform="translate(130,51)"/>
<path d="M0 0 C0.76 0.23 1.53 0.45 2.31 0.69 C1.65 2.01 0.99 3.33 0.31 4.69 C-0.35 4.69 -1.01 4.69 -1.69 4.69 C-1.96 5.29 -2.22 5.88 -2.5 6.5 C-3.67 8.66 -4.88 10.05 -6.69 11.69 C-5.56 8.72 -4.46 6.35 -2.69 3.69 C-3.35 3.69 -4.01 3.69 -4.69 3.69 C-4.91 4.2 -5.14 4.72 -5.38 5.25 C-6.69 7.69 -6.69 7.69 -9 10.75 C-14.62 18.53 -17.49 27.44 -19.69 36.69 C-20.02 36.69 -20.35 36.69 -20.69 36.69 C-20.57 35.33 -20.44 33.98 -20.31 32.62 C-20.28 32.25 -20.28 32.25 -20.1 30.34 C-19.17 24.4 -17.21 19.34 -14.38 14.06 C-13.8 12.98 -13.23 11.89 -12.64 10.77 C-10.63 7.59 -8.42 5.26 -5.69 2.69 C-5.19 2.07 -4.7 1.45 -4.19 0.81 C-2.69 -0.31 -2.69 -0.31 0 0 Z " fill="#7A6B7D" transform="translate(77.6875,61.3125)"/>
<path d="M0 0 C2.49 3.74 1.97 4.65 1.12 8.94 C-1.03 21.54 -1.05 34.48 5 46 C4.58 48.16 4.58 48.16 4 50 C3.2 48.17 2.41 46.34 1.62 44.5 C1.18 43.48 0.74 42.46 0.29 41.41 C-2.38 34.37 -3.36 28.16 -3.31 20.69 C-3.31 19.86 -3.31 19.03 -3.31 18.18 C-3.21 11.79 -2.27 6.01 0 0 Z " fill="#563A4C" transform="translate(45,82)"/>
<path d="M0 0 C3 3.75 3 3.75 3 6 C3.66 6 4.32 6 5 6 C5 6.99 5 7.98 5 9 C4.34 9 3.68 9 3 9 C2.67 10.65 2.34 12.3 2 14 C1.55 14.06 1.55 14.06 -0.75 14.38 C-3.59 14.92 -5.53 15.57 -8 17 C-8 15.68 -8 14.36 -8 13 C-7.36 12.61 -6.72 12.22 -6.06 11.81 C-3.09 9.2 -3.35 6.68 -3.08 2.86 C-3.05 2.25 -3.03 1.63 -3 1 C-2.01 0.67 -1.02 0.34 0 0 Z " fill="#825695" transform="translate(79,45)"/>
<path d="M0 0 C0 4.53 -2.38 7.76 -4.49 11.7 C-7.77 18.88 -8.28 25.24 -8.12 33 C-8.12 33.44 -8.12 33.44 -8.1 35.64 C-8.07 37.76 -8.04 39.88 -8 42 C-8.66 42 -9.32 42 -10 42 C-10.29 38.54 -10.52 35.09 -10.75 31.62 C-10.83 30.66 -10.91 29.69 -11 28.7 C-11.43 21.54 -10.18 16.4 -7 10 C-6.63 9.25 -6.25 8.49 -5.87 7.72 C-5.58 7.15 -5.29 6.58 -5 6 C-4.34 6 -3.68 6 -3 6 C-2.88 5.38 -2.75 4.76 -2.62 4.12 C-2 2 -2 2 0 0 Z " fill="#1C131F" transform="translate(66,69)"/>
<path d="M0 0 C0.66 0.33 1.32 0.66 2 1 C1.41 1.63 0.82 2.26 0.21 2.91 C-9.8 13.75 -14.48 23.9 -18.29 38.1 C-19 40 -19 40 -21 41 C-20.14 24.14 -11.11 11.95 0 0 Z " fill="#530E29" transform="translate(61,56)"/>
<path d="M0 0 C0.33 0 0.66 0 1 0 C1.24 1.11 1.48 2.22 1.73 3.37 C6.01 22.52 6.01 22.52 11 30 C11 30.99 11 31.98 11 33 C10.34 33 9.68 33 9 33 C1.54 23.11 -0.91 12.18 0 0 Z " fill="#120711" transform="translate(45,105)"/>
<path d="M0 0 C0.73 10.45 -2.07 20.8 -7 30 C-7.66 29.67 -8.32 29.34 -9 29 C-8.54 27.46 -8.08 25.92 -7.62 24.38 C-7.35 23.45 -7.08 22.53 -6.8 21.58 C-6.22 19.72 -5.57 17.88 -4.88 16.06 C-3.56 11.45 -3.32 6.77 -3 2 C-4.98 2 -6.96 2 -9 2 C-9 1.67 -9 1.34 -9 1 C-5.94 0.46 -3.11 0 0 0 Z " fill="#514762" transform="translate(145,104)"/>
<path d="M0 0 C0.66 0 1.32 0 2 0 C0.72 2.68 -0.71 5.11 -2.38 7.56 C-6.7 14.4 -8.93 22.24 -11 30 C-12.32 30.33 -13.64 30.66 -15 31 C-12.72 19.52 -8.2 8.62 0 0 Z " fill="#271D27" transform="translate(73,65)"/>
<path d="M0 0 C0.33 0.66 0.66 1.32 1 2 C-0.33 4.32 -0.33 4.32 -2.25 7.12 C-5.27 11.72 -7.34 15.77 -9 21 C-9.17 21.52 -9.17 21.52 -10.04 24.14 C-11.16 28.62 -11.45 32.84 -11.62 37.44 C-11.66 38.26 -11.7 39.09 -11.74 39.94 C-11.84 41.96 -11.92 43.98 -12 46 C-12.33 46 -12.66 46 -13 46 C-14.57 30.07 -13.41 17.32 -3.5 3.98 C-2.38 2.62 -1.2 1.3 0 0 Z " fill="#4B1229" transform="translate(50,62)"/>
<path d="M0 0 C0.99 0.33 1.98 0.66 3 1 C3 12.88 3 24.76 3 37 C1.68 36.34 0.36 35.68 -1 35 C-0.67 33.35 -0.34 31.7 0 30 C-0.66 29.67 -1.32 29.34 -2 29 C-2.59 26.35 -2.74 23.71 -3 21 C-1.68 22.32 -0.36 23.64 1 25 C1.33 17.41 1.66 9.82 2 2 C1.34 2 0.68 2 0 2 C0 1.34 0 0.68 0 0 Z " fill="#727272" transform="translate(92,115)"/>
<path d="M0 0 C0.33 0 0.66 0 1 0 C1.03 0.76 1.05 1.53 1.08 2.32 C1.5 10.23 2.93 17.23 5.16 24.79 C6 28 6 28 6 32 C1.5 28.14 0.27 22.61 -1 17 C-1.44 11.27 -1.83 5.5 0 0 Z " fill="#0A030B" transform="translate(50,99)"/>
<path d="M0 0 C1.32 3.95 0.29 5.27 -1.31 9.06 C-5.01 18.31 -6.29 27.1 -7 37 C-7.33 37 -7.66 37 -8 37 C-9.01 10.41 -9.01 10.41 0 0 Z " fill="#964464" transform="translate(46,72)"/>
<path d="M0 0 C0.66 0.33 1.32 0.66 2 1 C2 1.66 2 2.32 2 3 C-16 9.1 -16 9.1 -24 11 C-21.23 8.02 -18.49 6.06 -15 4 C-13.19 2.31 -13.19 2.31 -12 1 C-11.67 1.33 -11.34 1.66 -11 2 C-9 2.17 -9 2.17 -6.56 2.19 C-5.76 2.2 -4.96 2.22 -4.13 2.23 C-2 2 -2 2 0 0 Z " fill="#DF7750" transform="translate(129,149)"/>
<path d="M0 0 C1.32 0.33 2.64 0.66 4 1 C3.05 2.34 2.09 3.67 1.12 5 C0.59 5.74 0.06 6.48 -0.49 7.25 C-0.74 7.54 -0.74 7.54 -2 9 C-2.66 9 -3.32 9 -4 9 C-4.25 9.83 -4.49 10.65 -4.75 11.5 C-6.19 15.52 -8.02 19.22 -10 23 C-10.33 23 -10.66 23 -11 23 C-11.54 14.12 -5.36 6.6 0 0 Z " fill="#9F486B" transform="translate(57,62)"/>
<path d="M0 0 C0.33 0 0.66 0 1 0 C3.04 6.97 1.56 12.27 -1.12 18.75 C-1.42 19.47 -1.72 20.19 -2.02 20.93 C-4.08 25.64 -6.54 29.2 -10 33 C-10 29.34 -8.91 27.65 -7.19 24.44 C-3.1 16.45 -0.83 8.91 0 0 Z " fill="#210C20" transform="translate(135,110)"/>
<path d="M0 0 C5.57 1.31 8.07 5.41 11 10 C11 10.33 11 10.66 11 11 C5.8 11.7 5.8 11.7 3 11 C0.78 8.6 -0.63 5.96 -2 3 C-1.17 3.33 -1.17 3.33 3 5 C2.01 3.35 1.02 1.7 0 0 Z " fill="#293C3E" transform="translate(126,57)"/>
<path d="M0 0 C0 7.62 -7.28 14.83 -11.97 20.38 C-14.48 22.38 -15.87 22.34 -19 22 C-15.63 17.78 -12.73 14.71 -8 12 C-7.67 11.01 -7.34 10.02 -7 9 C-6 8 -5 7 -4 6 C-2.64 4.02 -1.3 2.02 0 0 Z " fill="#D8BAC4" transform="translate(154,127)"/>
<path d="M0 0 C0.33 0.16 0.33 0.16 2 1 C2 1.66 2 2.32 2 3 C2.66 3 3.32 3 4 3 C5.66 5.01 5.66 5.01 7.5 7.69 C8.11 8.56 8.72 9.43 9.34 10.32 C10.9 12.83 12 15.23 13 18 C9.04 16.45 6.93 13.93 4.25 10.69 C3.45 9.74 2.65 8.8 1.83 7.82 C-0.11 4.83 -0.43 3.48 0 0 Z " fill="#9C8997" transform="translate(41,131)"/>
<path d="M0 0 C0.41 0.01 0.41 0.01 2.46 0.07 C2.87 0.08 2.87 0.08 4.94 0.12 C5.25 0.14 5.25 0.14 6.84 0.2 C6.86 2.92 6.88 5.65 6.9 8.38 C6.91 9.15 6.92 9.92 6.92 10.71 C6.94 14.68 6.82 18.32 5.84 22.2 C5.18 22.2 4.52 22.2 3.84 22.2 C4 19.23 4 19.23 4.84 4.2 C3.52 3.87 2.2 3.54 0.84 3.2 C1.83 2.87 2.82 2.54 3.84 2.2 C1.2 2.2 -1.44 2.2 -4.16 2.2 C-2.16 0.2 -2.16 0.2 0 0 Z " fill="#467698" transform="translate(151.1640625,88.8046875)"/>
<path d="M0 0 C1.32 0.66 2.64 1.32 4 2 C1.02 7.01 -2.44 10.39 -7 14 C-6.84 13.68 -6.84 13.68 -6 12.06 C-5 10 -5 10 -5 9 C-5.99 9.82 -5.99 9.82 -11 14 C-9.85 10.9 -8.68 9.73 -6.06 7.56 C-3.19 5.16 -1.69 3.29 0 0 Z " fill="#8E2546" transform="translate(135,133)"/>
<path d="M0 0 C2.31 0.19 2.31 0.19 5 1 C6.81 3.56 6.81 3.56 8 6 C7.01 6 6.02 6 5 6 C5.55 6.45 6.11 6.89 6.68 7.36 C13.88 13.36 13.88 13.36 15 18 C12.53 17.62 11.31 17.35 9.62 15.44 C9.23 14.82 8.84 14.2 8.44 13.56 C6.7 10.83 5.82 9.88 3 8 C3.33 6.35 3.66 4.7 4 3 C2.68 2.01 1.36 1.02 0 0 Z " fill="#041315" transform="translate(125,50)"/>
<path d="M0 0 C3 1 3 1 4.06 2.75 C5.07 5.16 6.05 7.57 7 10 C4.36 10 1.72 10 -1 10 C-2 7 -2 7 -2 3 C-1.34 2.67 -0.68 2.34 0 2 C0 1.34 0 0.68 0 0 Z " fill="#0D1718" transform="translate(122,58)"/>
<path d="M0 0 C0.66 0 1.32 0 2 0 C0.46 3.29 -1.43 6.23 -3.44 9.25 C-6.33 13.74 -8.37 17.92 -10 23 C-10.66 22.34 -11.32 21.68 -12 21 C-11.57 17.16 -9.55 13.5 -8 10 C-7.34 10 -6.68 10 -6 10 C-5.86 9.62 -5.86 9.62 -5.12 7.69 C-4 5 -4 5 -2 2 C-1.34 2 -0.68 2 0 2 C0 1.34 0 0.68 0 0 Z " fill="#380D27" transform="translate(65,63)"/>
<path d="M0 0 C1.38 3.8 0.65 6.69 -0.25 10.56 C-0.5 11.7 -0.76 12.83 -1.02 14 C-1.97 16.9 -2.56 18.23 -5 20 C-5.66 20 -6.32 20 -7 20 C-7.66 18.35 -8.32 16.7 -9 15 C-8.34 15 -7.68 15 -7 15 C-6.34 14.01 -5.68 13.02 -5 12 C-5 13.32 -5 14.64 -5 16 C-4.34 16 -3.68 16 -3 16 C-2.95 15.35 -2.9 14.7 -2.85 14.02 C-2.43 9.07 -1.84 4.67 0 0 Z " fill="#CBCCCC" transform="translate(101,136)"/>
<path d="M0 0 C0.66 0.66 1.32 1.32 2 2 C1.7 3.87 1.7 3.87 1 6 C0.81 6.66 0.62 7.33 0.43 8.01 C0.22 8.71 0.02 9.4 -0.19 10.11 C-0.41 10.86 -0.64 11.62 -0.87 12.39 C-1.1 13.17 -1.33 13.95 -1.56 14.75 C-1.8 15.54 -2.03 16.34 -2.27 17.15 C-2.85 19.1 -3.42 21.05 -4 23 C-4.33 23 -4.66 23 -5 23 C-5.73 14.48 -3.11 7.81 0 0 Z " fill="#77455F" transform="translate(53,75)"/>
<path d="M0 0 C0 0.33 0 0.66 0 1 C-0.76 1.2 -1.52 1.41 -2.3 1.62 C-3.29 1.89 -4.29 2.16 -5.31 2.44 C-6.3 2.7 -7.28 2.97 -8.3 3.25 C-10.22 3.78 -12.11 4.37 -14 5 C-14.33 5.99 -14.66 6.98 -15 8 C-15.99 8.33 -16.98 8.66 -18 9 C-17.34 6.36 -16.68 3.72 -16 1 C-10.27 -0.57 -5.84 -1.24 0 0 Z " fill="#615B89" transform="translate(102,49)"/>
<path d="M0 0 C0.66 0.33 1.32 0.66 2 1 C0.01 2.34 -1.99 3.68 -4 5 C-4.72 5.54 -5.43 6.09 -6.17 6.65 C-10.12 8.54 -13.33 8.17 -17.62 7.81 C-18.39 7.77 -19.15 7.72 -19.94 7.68 C-23.7 7.41 -25.81 7.13 -29 5 C-27.88 5.01 -26.76 5.02 -25.61 5.04 C-24.13 5.04 -22.66 5.05 -21.19 5.06 C-20.45 5.07 -19.71 5.08 -18.95 5.09 C-15.7 5.1 -13.11 5.04 -10 4 C-9.52 3.85 -9.52 3.85 -7.06 3.06 C-4 2 -4 2 -1.75 0.81 C-1.17 0.54 -0.59 0.28 0 0 Z " fill="#CBC2BF" transform="translate(104,155)"/>
<path d="M0 0 C0.66 0.33 1.32 0.66 2 1 C2 6.59 -0.55 9.74 -4 14 C-6.88 16.06 -6.88 16.06 -9 17 C-7.54 12.88 -5.42 9.63 -3 6 C-2.3 4.35 -1.63 2.68 -1 1 C-0.67 0.67 -0.34 0.34 0 0 Z " fill="#A74767" transform="translate(53,58)"/>
<path d="M0 0 C3.95 2.15 6.82 4.58 9.88 7.88 C10.68 8.72 11.48 9.56 12.3 10.43 C14 13 14 13 13.76 15.82 C13.51 16.54 13.26 17.26 13 18 C10.69 18 8.38 18 6 18 C9 16 9 16 12 16 C9.7 11.64 8.12 8.8 4 6 C4 5.34 4 4.68 4 4 C2.68 3.67 1.36 3.34 0 3 C0 2.01 0 1.02 0 0 Z " fill="#BFD9DE" transform="translate(137,52)"/>
<path d="M0 0 C0.33 0.66 0.66 1.32 1 2 C0.34 2 -0.32 2 -1 2 C-1.12 3.11 -1.25 4.23 -1.38 5.38 C-2 9 -2 9 -4 11 C-4.64 11.1 -5.28 11.21 -5.94 11.31 C-8.95 12.32 -9.6 14.27 -11 17 C-11.33 16.34 -11.66 15.68 -12 15 C-3.26 1.63 -3.26 1.63 0 0 Z " fill="#DF9EB3" transform="translate(51,55)"/>
<path d="M0 0 C0.33 0 0.66 0 1 0 C1.42 8.31 0.98 15.47 -3.69 22.56 C-4.12 23.04 -4.55 23.51 -5 24 C-6.2 20.39 -5.72 19.84 -4.19 16.5 C-1.89 11.1 -0.84 5.79 0 0 Z " fill="#5F415D" transform="translate(138,109)"/>
<path d="M0 0 C0 3.58 -0.74 4.28 -2.94 7 C-4.9 9.45 -5.99 10.98 -7 14 C-7.66 14 -8.32 14 -9 14 C-9.66 16.31 -10.32 18.62 -11 21 C-11.66 20.67 -12.32 20.34 -13 20 C-11.89 16.51 -10.74 13.23 -9 10 C-8.34 10 -7.68 10 -7 10 C-6.77 9.28 -6.55 8.56 -6.31 7.81 C-4.75 4.47 -2.7 2.48 0 0 Z " fill="#590E31" transform="translate(62,61)"/>
<path d="M0 0 C0.66 0 1.32 0 2 0 C0.97 3.43 -0.25 6.54 -1.94 9.69 C-4.46 14.55 -5.71 19.7 -7 25 C-7.33 25 -7.66 25 -8 25 C-7.18 15.5 -4.88 8.21 0 0 Z " fill="#534153" transform="translate(65,73)"/>
<path d="M0 0 C1.33 4 0.4 6.08 -1 10 C-2.62 11.75 -2.62 11.75 -4 13 C-4 13.99 -4 14.98 -4 16 C-4.99 15.67 -5.98 15.34 -7 15 C-6.44 11.66 -5.65 8.97 -4 6 C-3.34 6 -2.68 6 -2 6 C-1.34 4.02 -0.68 2.04 0 0 Z " fill="#787878" transform="translate(79,100)"/>
<path d="M0 0 C0.33 0.66 0.66 1.32 1 2 C1.66 1.67 2.32 1.34 3 1 C2.67 2.32 2.34 3.64 2 5 C1.09 5.12 0.19 5.25 -0.75 5.38 C-3.59 5.92 -5.53 6.57 -8 8 C-8 6.68 -8 5.36 -8 4 C-3.89 0 -3.89 0 0 0 Z " fill="#755187" transform="translate(79,54)"/>
<path d="M0 0 C0.33 0 0.66 0 1 0 C0.67 5.61 0.34 11.22 0 17 C-0.66 17.33 -1.32 17.66 -2 18 C-2.05 15.37 -2.09 12.75 -2.12 10.12 C-2.14 9.38 -2.16 8.63 -2.18 7.86 C-2.19 5.91 -2.1 3.95 -2 2 C-1.34 1.34 -0.68 0.68 0 0 Z " fill="#080308" transform="translate(60,94)"/>
<path d="M0 0 C2.47 1.15 4.05 2.05 6 4 C6.99 4 7.98 4 9 4 C11 7 11 7 11 10 C9.02 10.33 7.04 10.66 5 11 C5.66 10.67 6.32 10.34 7 10 C6.58 9.45 6.16 8.89 5.72 8.32 C5.45 7.96 5.45 7.96 4.06 6.12 C3.79 5.77 3.79 5.77 2.41 3.95 C1 2 1 2 0 0 Z " fill="#61999B" transform="translate(138,58)"/>
<path d="M0 0 C0.66 0 1.32 0 2 0 C0.31 3.51 -1.68 6.73 -3.78 10 C-4.97 11.95 -6.01 13.94 -7 16 C-7.66 16 -8.32 16 -9 16 C-7.55 9.87 -4.01 4.78 0 0 Z " fill="#251B26" transform="translate(73,65)"/>
<path d="M0 0 C1.32 0.33 2.64 0.66 4 1 C3.05 2.63 2.09 4.25 1.12 5.88 C0.59 6.78 0.06 7.68 -0.49 8.62 C-2 11 -2 11 -4 13 C-4.46 7.28 -3.52 4.51 0 0 Z " fill="#B35878" transform="translate(43,66)"/>
<path d="M0 0 C0.61 1.8 0.61 1.8 1 4 C-0.81 7.25 -0.81 7.25 -3 10 C-3.66 10 -4.32 10 -5 10 C-5.33 11.32 -5.66 12.64 -6 14 C-6.66 14 -7.32 14 -8 14 C-6.58 8.32 -3.61 4.47 0 0 Z " fill="#8F476F" transform="translate(62,63)"/>
<path d="M0 0 C1.63 3.11 2.95 6.28 4.19 9.56 C4.55 10.51 4.92 11.46 5.29 12.44 C6 15 6 15 5 18 C0.22 12.14 -0.29 7.34 0 0 Z " fill="#735069" transform="translate(36,114)"/>
<path d="M0 0 C-3.4 3.91 -3.4 3.91 -6.44 4.38 C-10.33 5.32 -11.56 7.89 -14 11 C-14.66 11 -15.32 11 -16 11 C-13.18 4.5 -7.47 -1.31 0 0 Z " fill="#493054" transform="translate(83,58)"/>
<path d="M0 0 C-0.66 0.66 -1.32 1.32 -2 2 C-2.99 2 -3.98 2 -5 2 C-5 2.66 -5 3.32 -5 4 C-8.63 4.66 -12.26 5.32 -16 6 C-13.35 3.35 -11.86 2.24 -8.56 0.75 C-7.8 0.39 -7.04 0.04 -6.25 -0.33 C-3.72 -1.08 -2.46 -0.87 0 0 Z " fill="#CBA9C6" transform="translate(79,41)"/>
<path d="M0 0 C-1.65 0.66 -3.3 1.32 -5 2 C-5 2.66 -5 3.32 -5 4 C-8.3 4.33 -11.6 4.66 -15 5 C-12.17 2.17 -11.1 1.43 -7.5 0.25 C-6.73 -0.01 -5.95 -0.28 -5.16 -0.55 C-3 -1 -3 -1 0 0 Z " fill="#E8A069" transform="translate(121,156)"/>
<path d="M0 0 C0.66 0 1.32 0 2 0 C2.05 2.63 2.09 5.25 2.12 7.88 C2.14 8.62 2.16 9.37 2.18 10.14 C2.19 12.09 2.1 14.05 2 16 C1.34 16.66 0.68 17.32 0 18 C-0.19 15.19 -0.38 12.38 -0.56 9.56 C-0.62 8.76 -0.67 7.96 -0.73 7.13 C-0.86 5.09 -0.94 3.04 -1 1 C-0.67 0.67 -0.34 0.34 0 0 Z " fill="#426A88" transform="translate(152,96)"/>
<path d="M0 0 C0.56 0.23 1.11 0.45 1.69 0.69 C0.58 3.9 -0.33 4.7 -3.31 6.5 C-4.3 6.89 -5.29 7.28 -6.31 7.69 C-6.97 7.36 -7.63 7.03 -8.31 6.69 C-8.12 4.88 -8.12 4.88 -7.31 2.69 C-3.31 -0.45 -3.31 -0.45 0 0 Z " fill="#91609A" transform="translate(81.3125,40.3125)"/>
<path d="M0 0 C0.33 0 0.66 0 1 0 C1.74 4.76 -0.27 7.56 -2.71 11.43 C-3.14 11.95 -3.56 12.46 -4 13 C-4.66 13 -5.32 13 -6 13 C-6.33 13.99 -6.66 14.98 -7 16 C-7.99 16.33 -8.98 16.66 -10 17 C-8.93 14.6 -7.82 12.78 -6.12 10.75 C-3.53 7.39 -1.79 3.84 0 0 Z " fill="#B96880" transform="translate(128,130)"/>
<path d="M0 0 C1.18 1.64 1.18 1.64 2 4 C0.88 6.8 0.88 6.8 -0.88 9.75 C-1.16 10.24 -1.16 10.24 -2.62 12.73 C-3.07 13.48 -3.53 14.23 -4 15 C-4.99 15 -5.98 15 -7 15 C-6.66 14.42 -6.32 13.84 -5.98 13.24 C-3.5 8.91 -1.36 4.83 0 0 Z " fill="#6A5273" transform="translate(148,122)"/>
<path d="M0 0 C2 2 2 2 2.04 4.06 C1.95 4.89 1.85 5.72 1.76 6.57 C1.66 7.47 1.56 8.36 1.46 9.29 C1.41 9.75 1.41 9.75 1.12 12.12 C1.02 13.07 0.92 14.01 0.81 14.99 C0.55 17.33 0.28 19.66 0 22 C-0.33 22 -0.66 22 -1 22 C-1.03 18.9 -1.05 15.79 -1.06 12.69 C-1.07 11.81 -1.08 10.93 -1.09 10.02 C-1.09 9.17 -1.09 8.32 -1.1 7.45 C-1.1 6.67 -1.11 5.89 -1.11 5.08 C-1 3 -1 3 0 0 Z " fill="#794962" transform="translate(39,87)"/>
<path d="M0 0 C0.66 0.33 1.32 0.66 2 1 C1.77 2.82 1.77 2.82 1 5 C-0.96 6.52 -0.96 6.52 -3.38 7.81 C-4.17 8.25 -4.96 8.69 -5.77 9.14 C-8 10 -8 10 -11 9 C-10.37 8.6 -9.75 8.2 -9.1 7.79 C-8.28 7.26 -7.47 6.73 -6.62 6.19 C-5.81 5.67 -5 5.14 -4.16 4.61 C-2 3 -2 3 0 0 Z " fill="#EB6E59" transform="translate(116,150)"/>
<path d="M0 0 C0.66 0.66 1.32 1.32 2 2 C1.72 3.68 1.37 5.34 1 7 C0.72 10.27 0.59 13.54 0.44 16.81 C0.39 17.7 0.35 18.58 0.31 19.49 C0.2 21.66 0.1 23.83 0 26 C-0.33 26 -0.66 26 -1 26 C-1.03 22.42 -1.05 18.83 -1.06 15.25 C-1.07 14.23 -1.08 13.22 -1.09 12.17 C-1.09 11.19 -1.09 10.21 -1.1 9.2 C-1.1 8.3 -1.11 7.4 -1.11 6.47 C-1.01 4.17 -0.65 2.21 0 0 Z " fill="#52404E" transform="translate(53,88)"/>
<path d="M0 0 C0.33 0 0.66 0 1 0 C1.25 5.62 1.25 5.62 -1 9 C-1.66 9 -2.32 9 -3 9 C-3.33 10.32 -3.66 11.64 -4 13 C-5.32 13.33 -6.64 13.66 -8 14 C-7.51 13.24 -7.01 12.48 -6.5 11.7 C-6.18 11.2 -6.18 11.2 -4.56 8.69 C-3.92 7.7 -3.29 6.72 -2.63 5.7 C-1 3 -1 3 0 0 Z " fill="#85738D" transform="translate(150,127)"/>
<path d="M0 0 C2.08 3.42 2.08 3.42 1.75 5.93 C1.5 6.61 1.25 7.29 1 8 C0.7 8.84 0.4 9.68 0.1 10.54 C-0.24 11.42 -0.59 12.29 -0.94 13.19 C-1.11 13.63 -1.11 13.63 -1.96 15.86 C-3 18 -3 18 -5 19 C-4.81 18.38 -4.61 17.77 -4.41 17.13 C-2.67 11.46 -1.22 5.81 0 0 Z " fill="#2B102B" transform="translate(143,116)"/>
<path d="M0 0 C2.56 3.84 1.92 5.23 1.12 9.69 C0.92 10.87 0.72 12.05 0.51 13.26 C0.34 14.17 0.17 15.07 0 16 C-0.66 16 -1.32 16 -2 16 C-2.21 10.21 -1.59 5.57 0 0 Z " fill="#76475D" transform="translate(45,82)"/>
<path d="M0 0 C0 2.97 0 5.94 0 9 C-0.66 8.67 -1.32 8.34 -2 8 C-2 6.02 -2 4.04 -2 2 C-5.63 2 -9.26 2 -13 2 C-13 1.67 -13 1.34 -13 1 C-11.4 0.83 -9.79 0.67 -8.19 0.5 C-7.29 0.41 -6.4 0.31 -5.48 0.22 C-3 0 -3 0 0 0 Z " fill="#434D67" transform="translate(149,100)"/>
<path d="M0 0 C4.29 0 8.58 0 13 0 C13 0.33 13 0.66 13 1 C10.69 1.33 8.38 1.66 6 2 C6 2.99 6 3.98 6 5 C6.66 5.66 7.32 6.32 8 7 C7.01 7 6.02 7 5 7 C4.34 5.68 3.68 4.36 3 3 C2.01 3 1.02 3 0 3 C0 2.01 0 1.02 0 0 Z " fill="#707071" transform="translate(107,89)"/>
<path d="M0 0 C0.66 0.99 1.32 1.98 2 3 C0.35 6.3 -1.3 9.6 -3 13 C-3.33 13 -3.66 13 -4 13 C-4.64 7.89 -2.41 4.33 0 0 Z " fill="#8C4866" transform="translate(50,72)"/>
<path d="M0 0 C3 2 3 2 4 3 C4.99 3.66 5.98 4.32 7 5 C6 6 6 6 2.44 6.06 C1.3 6.04 0.17 6.02 -1 6 C-1.62 4.12 -1.62 4.12 -2 2 C-1.34 1.34 -0.68 0.68 0 0 Z " fill="#D45057" transform="translate(119,146)"/>
<path d="M0 0 C0 4.71 -3.08 7.05 -6.25 10.31 C-6.54 10.59 -6.54 10.59 -8 12 C-8.66 11.67 -9.32 11.34 -10 11 C-8.9 9.73 -7.79 8.46 -6.69 7.19 C-6.07 6.48 -5.46 5.77 -4.82 5.04 C-3.27 3.3 -1.67 1.63 0 0 Z " fill="#B9595F" transform="translate(140,139)"/>
<path d="M0 0 C0.33 0 0.66 0 1 0 C0.73 6.55 -1.81 10.07 -6 15 C-6 11.21 -4.73 9.17 -3 5.81 C-2.44 4.73 -1.89 3.64 -1.31 2.52 C-0.88 1.69 -0.45 0.86 0 0 Z " fill="#671431" transform="translate(131,128)"/>
<path d="M0 0 C3.96 0 7.92 0 12 0 C12 0.33 12 0.66 12 1 C9.69 1.33 7.38 1.66 5 2 C5.33 2.5 5.33 2.5 7 5 C5.35 5 3.7 5 2 5 C1.34 3.35 0.68 1.7 0 0 Z " fill="#05030C" transform="translate(129,103)"/>
<path d="M0 0 C0 3.49 -0.9 5.11 -2.5 8.19 C-2.96 9.09 -3.43 9.99 -3.91 10.92 C-4.27 11.61 -4.63 12.29 -5 13 C-5.66 12.67 -6.32 12.34 -7 12 C-6.34 10.02 -5.68 8.04 -5 6 C-4.34 6 -3.68 6 -3 6 C-2.94 5.69 -2.94 5.69 -2.62 4.12 C-2 2 -2 2 0 0 Z " fill="#2D112C" transform="translate(66,69)"/>
<path d="M0 0 C0.33 0.99 0.66 1.98 1 3 C-1.6 7.79 -4.76 10.73 -9 14 C-7.45 10.65 -5.51 7.75 -3.38 4.75 C-2.74 3.86 -2.11 2.97 -1.46 2.05 C-1.22 1.71 -1.22 1.71 0 0 Z " fill="#A74463" transform="translate(132,132)"/>
<path d="M0 0 C0.99 0.33 1.98 0.66 3 1 C1.35 4.63 -0.3 8.26 -2 12 C-3.02 7.94 -3.05 7.33 -1.56 3.75 C-1.28 3.04 -0.99 2.34 -0.69 1.61 C-0.46 1.08 -0.24 0.55 0 0 Z " fill="#63445B" transform="translate(57,78)"/>
<path d="M0 0 C5.64 1.33 7.93 5.47 11 10 C8 10 8 10 6.21 8.32 C5.91 7.96 5.91 7.96 4.38 6.12 C3.76 5.41 3.15 4.69 2.52 3.95 C1 2 1 2 0 0 Z " fill="#4E6665" transform="translate(126,57)"/>
<path d="M0 0 C3.94 1.31 6.23 2.92 9 6 C8.67 6.99 8.34 7.98 8 9 C7.44 8.38 6.89 7.76 6.31 7.12 C3.93 4.94 2.04 4.01 -1 3 C-0.67 2.01 -0.34 1.02 0 0 Z " fill="#366B70" transform="translate(136,54)"/>
<path d="M0 0 C0 0.66 0 1.32 0 2 C-0.99 2 -1.98 2 -3 2 C-2.67 2.99 -2.34 3.98 -2 5 C-3.48 5.49 -3.48 5.49 -11 8 C-8.22 4.19 -5.12 0 0 0 Z " fill="#DEA3BE" transform="translate(63,47)"/>
<path d="M0 0 C2.31 0.66 4.62 1.32 7 2 C7.33 3.32 7.66 4.64 8 6 C7.24 5.69 6.47 5.38 5.69 5.06 C3.81 4.32 1.91 3.64 0 3 C0 2.01 0 1.02 0 0 Z " fill="#80A9AC" transform="translate(129,48)"/>
<path d="M0 0 C-2.88 2.4 -5.56 4.47 -9 6 C-9.33 5.01 -9.66 4.02 -10 3 C-9.01 3 -8.02 3 -7 3 C-7 2.34 -7 1.68 -7 1 C-3.38 -1.12 -3.38 -1.12 0 0 Z " fill="#AA5D8D" transform="translate(70,46)"/>
<path d="M0 0 C3.09 1.39 4.49 2.49 7 5 C4.03 5 1.06 5 -2 5 C-1.34 3.35 -0.68 1.7 0 0 Z " fill="#399FB3" transform="translate(112,42)"/>
<path d="M0 0 C0 2.97 0 5.94 0 9 C-2 7 -2 7 -2.12 4.38 C-2.08 3.59 -2.04 2.81 -2 2 C-4.31 2 -6.62 2 -9 2 C-9 1.67 -9 1.34 -9 1 C-5.94 0.46 -3.11 0 0 0 Z " fill="#3E3E55" transform="translate(145,104)"/>
<path d="M0 0 C3 1 3 1 4.69 4.06 C5.12 5.03 5.55 6 6 7 C4.35 7 2.7 7 1 7 C0 4 0 4 0 0 Z " fill="#31393A" transform="translate(120,61)"/>
<path d="M0 0 C0 0.66 0 1.32 0 2 C-0.66 2 -1.32 2 -2 2 C-2 2.66 -2 3.32 -2 4 C-2.66 4 -3.32 4 -4 4 C-4.33 4.99 -4.66 5.98 -5 7 C-6.32 6.67 -7.64 6.34 -9 6 C-7.88 4.99 -6.75 4 -5.62 3 C-5.31 2.72 -5.31 2.72 -3.73 1.31 C-2 0 -2 0 0 0 Z " fill="#A9467B" transform="translate(67,55)"/>
<path d="M0 0 C1 3 1 3 0 5.26 C-0.47 6.06 -0.95 6.86 -1.44 7.69 C-1.91 8.5 -2.38 9.3 -2.87 10.14 C-3.24 10.75 -3.62 11.37 -4 12 C-5 9 -5 9 -4.26 6.99 C-3.88 6.29 -3.51 5.59 -3.12 4.88 C-2.76 4.17 -2.39 3.47 -2.01 2.74 C-1 1 -1 1 0 0 Z " fill="#794B6B" transform="translate(144,125)"/>
<path d="M0 0 C-1.65 1.65 -3.3 3.3 -5 5 C-5.99 4.67 -6.98 4.34 -8 4 C-5.98 -0.48 -4.8 -1.44 0 0 Z " fill="#984D8E" transform="translate(75,46)"/>
<path d="M0 0 C0.69 1.62 0.69 1.62 1 4 C-0.44 7.25 -0.44 7.25 -2 10 C-2.66 9.67 -3.32 9.34 -4 9 C-2.94 5.6 -1.99 2.99 0 0 Z " fill="#734561" transform="translate(140,124)"/>
<path d="M0 0 C0.33 0 0.66 0 1 0 C1.37 6.51 1.37 6.51 -0.38 8.81 C-0.91 9.2 -1.45 9.6 -2 10 C-2.66 10.66 -3.32 11.32 -4 12 C-3.34 7.61 -1.81 4.02 0 0 Z " fill="#E2B3C5" transform="translate(38,72)"/>
<path d="M0 0 C0 0.66 0 1.32 0 2 C-0.99 2 -1.98 2 -3 2 C-2.67 2.99 -2.34 3.98 -2 5 C-4.31 5.33 -6.62 5.66 -9 6 C-3.15 0 -3.15 0 0 0 Z " fill="#913C77" transform="translate(72,50)"/>
<path d="M0 0 C0.66 0.33 1.32 0.66 2 1 C1.67 1.64 1.34 2.28 1 2.94 C0 5 0 5 0 6 C-2.31 6 -4.62 6 -7 6 C-4.83 3.72 -2.54 1.84 0 0 Z " fill="#D0887A" transform="translate(106,155)"/>
<path d="M0 0 C3.25 2.83 4.52 4.69 5 9 C4.34 9 3.68 9 3 9 C0.57 5.63 0 4.27 0 0 Z " fill="#070308" transform="translate(51,129)"/>
<path d="M0 0 C0.66 0 1.32 0 2 0 C2 2.64 2 5.28 2 8 C0.68 8.33 -0.64 8.66 -2 9 C-1.34 6.03 -0.68 3.06 0 0 Z " fill="#151119" transform="translate(60,87)"/>
<path d="M0 0 C0.99 0.66 1.98 1.32 3 2 C2.67 2.16 2.67 2.16 1 3 C0.88 3.64 0.75 4.28 0.62 4.94 C0 7 0 7 -2.06 8.25 C-2.7 8.5 -3.34 8.74 -4 9 C-3.67 8.42 -3.34 7.84 -3 7.25 C-2 5 -2 5 -2 1 C-1.34 0.67 -0.68 0.34 0 0 Z " fill="#8D83A3" transform="translate(84,53)"/>
<path d="M0 0 C2 3 2 3 1.76 5.48 C1.55 6.37 1.34 7.27 1.12 8.19 C0.92 9.09 0.72 9.99 0.51 10.92 C0.34 11.61 0.17 12.29 0 13 C-0.33 13 -0.66 13 -1 13 C-1.03 11.58 -1.05 10.17 -1.06 8.75 C-1.07 7.96 -1.09 7.17 -1.1 6.36 C-1 4.09 -0.63 2.17 0 0 Z " fill="#67455C" transform="translate(49,85)"/>
<path d="M0 0 C0 0.33 0 0.66 0 1 C-3.63 1.66 -7.26 2.32 -11 3 C-11 2.01 -11 1.02 -11 0 C-7.18 -1.37 -3.93 -0.68 0 0 Z " fill="#596A93" transform="translate(102,49)"/>
<path d="M0 0 C2.53 2.36 3.89 3.66 5 7 C3.12 6.75 3.12 6.75 1 6 C-0.31 4.06 -0.31 4.06 -1 2 C-0.67 1.34 -0.34 0.68 0 0 Z " fill="#0F2427" transform="translate(135,61)"/>
<path d="M0 0 C0.5 0.33 0.5 0.33 3 2 C2.67 3.98 2.34 5.96 2 8 C1.34 8 0.68 8 0 8 C0.33 6.35 0.66 4.7 1 3 C0.34 2.67 -0.32 2.34 -1 2 C-0.67 1.34 -0.34 0.68 0 0 Z " fill="#9A9A9A" transform="translate(91,142)"/>
<path d="M0 0 C0.66 0 1.32 0 2 0 C1.01 2.97 0.02 5.94 -1 9 C-1.66 8.67 -2.32 8.34 -3 8 C-1.12 2.25 -1.12 2.25 0 0 Z " fill="#410B25" transform="translate(52,73)"/>
<path d="M0 0 C0.66 1.32 1.32 2.64 2 4 C1.34 4 0.68 4 0 4 C-0.33 5.32 -0.66 6.64 -1 8 C-1.66 8 -2.32 8 -3 8 C-1.12 2.25 -1.12 2.25 0 0 Z " fill="#844B68" transform="translate(57,69)"/>
<path d="M0 0 C0.33 0.66 0.66 1.32 1 2 C-0.65 4.31 -2.3 6.62 -4 9 C-4.66 8.67 -5.32 8.34 -6 8 C-4.02 5.36 -2.04 2.72 0 0 Z " fill="#6F112F" transform="translate(50,62)"/>
<path d="M0 0 C0.99 0.33 1.98 0.66 3 1 C1.35 2.65 -0.3 4.3 -2 6 C-2.66 5.67 -3.32 5.34 -4 5 C-2.25 1.12 -2.25 1.12 0 0 Z " fill="#B54571" transform="translate(57,57)"/>
<path d="M0 0 C0.33 0.66 0.66 1.32 1 2 C2.32 2 3.64 2 5 2 C5.33 2.99 5.66 3.98 6 5 C4.02 5 2.04 5 0 5 C0 3.35 0 1.7 0 0 Z " fill="#507AB0" transform="translate(96,44)"/>
<path d="M0 0 C7.75 0.88 7.75 0.88 10 2 C10 2.66 10 3.32 10 4 C6.44 3.39 3.32 2.42 0 1 C0 0.67 0 0.34 0 0 Z " fill="#56A8B5" transform="translate(109,40)"/>
<path d="M0 0 C1.03 2.79 1.05 3.87 0.06 6.75 C-0.29 7.49 -0.64 8.23 -1 9 C-1.33 9 -1.66 9 -2 9 C-2.25 3.38 -2.25 3.38 0 0 Z " fill="#97506D" transform="translate(42,80)"/>
<path d="M0 0 C0.66 0 1.32 0 2 0 C0.56 3.37 -1.33 5.51 -4 8 C-4 5 -4 5 -2 2 C-1.34 2 -0.68 2 0 2 C0 1.34 0 0.68 0 0 Z " fill="#521840" transform="translate(65,63)"/>
<path d="M0 0 C0.66 0.33 1.32 0.66 2 1 C2 2.32 2 3.64 2 5 C1.34 5.66 0.68 6.32 0 7 C-0.66 6.67 -1.32 6.34 -2 6 C-1.12 1.12 -1.12 1.12 0 0 Z " fill="#9D2D54" transform="translate(53,58)"/>
<path d="M0 0 C0 0.99 0 1.98 0 3 C-2.5 4.69 -2.5 4.69 -5 6 C-4.62 3.56 -4.62 3.56 -4 1 C-2 0 -2 0 0 0 Z " fill="#765A94" transform="translate(84,51)"/>
</svg>
